<?xml version="1.0" encoding="UTF-8"?>
<svg version="1.1" xmlns="http://www.w3.org/2000/svg" width="100" height="100">
<path d="M0 0 C33 0 66 0 100 0 C100 33 100 66 100 100 C67 100 34 100 0 100 C0 67 0 34 0 0 Z " fill="#262E3B" transform="translate(0,0)"/>
<path d="M0 0 C5.94 0 11.88 0 18 0 C18.99 3.3 19.98 6.6 21 10 C22.32 6.7 23.64 3.4 25 0 C26.32 0.33 27.64 0.66 29 1 C30.19287411 4.87684087 31 7.91621923 31 12 C31.66 12 32.32 12 33 12 C33.185625 10.14375 33.185625 10.14375 33.375 8.25 C33.75746305 5.1237803 34.30549523 2.71120763 36 0 C36.99 0 37.98 0 39 0 C37.68 5.28 36.36 10.56 35 16 C36.32 15.01 37.64 14.02 39 13 C39.66 12.67 40.32 12.34 41 12 C40.97679687 11.30132812 40.95359375 10.60265625 40.9296875 9.8828125 C40.91164062 8.97273438 40.89359375 8.06265625 40.875 7.125 C40.85179687 6.22007813 40.82859375 5.31515625 40.8046875 4.3828125 C41 2 41 2 43 0 C45.1640625 -0.1953125 45.1640625 -0.1953125 47.625 -0.125 C48.85089844 -0.09792969 48.85089844 -0.09792969 50.1015625 -0.0703125 C51.04128906 -0.03550781 51.04128906 -0.03550781 52 0 C52.495 1.485 52.495 1.485 53 3 C50.36 3 47.72 3 45 3 C45 3.99 45 4.98 45 6 C45.56589844 6.23074219 46.13179687 6.46148437 46.71484375 6.69921875 C52.70456754 9.36248785 52.70456754 9.36248785 54.1875 12.5625 C54 15 54 15 53 16.75 C50.12413716 18.54741427 47.33396302 18.68547519 44 19 C44 19.99 44 20.98 44 22 C44.78246094 21.98839844 45.56492188 21.97679688 46.37109375 21.96484375 C47.38300781 21.95582031 48.39492187 21.94679688 49.4375 21.9375 C50.44683594 21.92589844 51.45617187 21.91429688 52.49609375 21.90234375 C55 22 55 22 56 23 C56.44926708 26.95355026 56.30871428 28.55622323 54 31.875 C53.34 32.57625 52.68 33.2775 52 34 C51.46890625 33.80535156 50.9378125 33.61070313 50.390625 33.41015625 C47.18794918 32.86067756 44.88908063 33.61622891 41.75 34.4375 C28.20609299 37.47538568 14.23722451 37.56617271 1.97265625 30.17578125 C-0.42029657 28.52118694 -2.73283685 26.82191892 -5 25 C-4.67 24.34 -4.34 23.68 -4 23 C-2.35 23.33 -0.7 23.66 1 24 C1 23.01 1 22.02 1 21 C1.99 20.67 2.98 20.34 4 20 C3.195625 19.525625 2.39125 19.05125 1.5625 18.5625 C-1 17 -1 17 -2 16 C-2.1875 13.0625 -2.1875 13.0625 -2 10 C0 8 0 8 2.1640625 7.8046875 C3.38222656 7.83949219 3.38222656 7.83949219 4.625 7.875 C5.85089844 7.90207031 5.85089844 7.90207031 7.1015625 7.9296875 C8.04128906 7.96449219 8.04128906 7.96449219 9 8 C8.67 6.68 8.34 5.36 8 4 C5.03 4 2.06 4 -1 4 C-0.67 2.68 -0.34 1.36 0 0 Z " fill="#2C3038" transform="translate(25,33)"/>
<path d="M0 0 C1.32 0 2.64 0 4 0 C4.99 3.3 5.98 6.6 7 10 C8.32 6.7 9.64 3.4 11 0 C12.32 0.33 13.64 0.66 15 1 C16.19287411 4.87684087 17 7.91621923 17 12 C17.66 12 18.32 12 19 12 C19.12375 10.7625 19.2475 9.525 19.375 8.25 C19.75746305 5.1237803 20.30549523 2.71120763 22 0 C22.99 0 23.98 0 25 0 C24.54678672 2.06363112 24.08720894 4.12586507 23.625 6.1875 C23.24214844 7.91033203 23.24214844 7.91033203 22.8515625 9.66796875 C22.10527548 12.58807348 21.19568212 15.23953389 20 18 C18.35 17.67 16.7 17.34 15 17 C14.01 14.03 13.02 11.06 12 8 C11.01 11.3 10.02 14.6 9 18 C7.68 18 6.36 18 5 18 C4.16320723 15.37605694 3.33043058 12.75095616 2.5 10.125 C2.26152344 9.37863281 2.02304687 8.63226563 1.77734375 7.86328125 C0 2.2265625 0 2.2265625 0 0 Z " fill="#E3E4E8" transform="translate(39,33)"/>
<path d="M0 0 C1.96875 0.65625 1.96875 0.65625 3.9375 1.3125 C4.75734375 1.58449219 5.5771875 1.85648438 6.421875 2.13671875 C8.08131678 2.69238031 9.7378631 3.2568053 11.390625 3.83203125 C12.14859375 4.09371094 12.9065625 4.35539062 13.6875 4.625 C14.37199219 4.86476563 15.05648437 5.10453125 15.76171875 5.3515625 C29.39012098 9.29975582 42.76566259 6.94214306 56 3 C56 3.66 56 4.32 56 5 C54.48329636 5.79955001 52.96138002 6.58921388 51.4375 7.375 C50.59058594 7.81585938 49.74367187 8.25671875 48.87109375 8.7109375 C37.46828762 13.83056474 24.65719848 13.39873742 12.99609375 9.3515625 C8.22277186 7.19827779 3.96980113 4.4142082 0 1 C0 0.67 0 0.34 0 0 Z " fill="#E29936" transform="translate(20,57)"/>
<path d="M0 0 C1.62463842 -0.05395478 3.24978541 -0.09277195 4.875 -0.125 C5.77992187 -0.14820313 6.68484375 -0.17140625 7.6171875 -0.1953125 C10 0 10 0 12 2 C12.3063859 4.73434962 12.5113336 7.38279821 12.625 10.125 C12.66367187 10.87910156 12.70234375 11.63320313 12.7421875 12.41015625 C12.83651031 14.27303184 12.91934662 16.13648255 13 18 C12.01 18 11.02 18 10 18 C10 17.34 10 16.68 10 16 C9.443125 16.495 8.88625 16.99 8.3125 17.5 C5.5588385 19.28615881 4.22243543 19.4957593 1 19 C-0.8125 17.875 -0.8125 17.875 -2 16 C-2.3125 12.9375 -2.3125 12.9375 -2 10 C0 8 0 8 2.1640625 7.8046875 C3.38222656 7.83949219 3.38222656 7.83949219 4.625 7.875 C5.85089844 7.90207031 5.85089844 7.90207031 7.1015625 7.9296875 C8.04128906 7.96449219 8.04128906 7.96449219 9 8 C8.67 6.68 8.34 5.36 8 4 C5.03 4 2.06 4 -1 4 C-0.67 2.68 -0.34 1.36 0 0 Z " fill="#F4F8FA" transform="translate(25,33)"/>
<path d="M0 0 C1.21816406 0.03480469 1.21816406 0.03480469 2.4609375 0.0703125 C3.68683594 0.09738281 3.68683594 0.09738281 4.9375 0.125 C5.87722656 0.15980469 5.87722656 0.15980469 6.8359375 0.1953125 C7.1659375 1.1853125 7.4959375 2.1753125 7.8359375 3.1953125 C5.1959375 3.1953125 2.5559375 3.1953125 -0.1640625 3.1953125 C-0.1640625 4.1853125 -0.1640625 5.1753125 -0.1640625 6.1953125 C0.40183594 6.42605469 0.96773438 6.65679687 1.55078125 6.89453125 C7.54050504 9.55780035 7.54050504 9.55780035 9.0234375 12.7578125 C8.8359375 15.1953125 8.8359375 15.1953125 7.5234375 16.9453125 C4.2288188 19.3857708 1.90490558 19.44443299 -2.1640625 19.1953125 C-3.1540625 18.5353125 -4.1440625 17.8753125 -5.1640625 17.1953125 C-5.1640625 16.5353125 -5.1640625 15.8753125 -5.1640625 15.1953125 C-2.1940625 15.1953125 0.7759375 15.1953125 3.8359375 15.1953125 C3.8359375 14.2053125 3.8359375 13.2153125 3.8359375 12.1953125 C1.1959375 10.8753125 -1.4440625 9.5553125 -4.1640625 8.1953125 C-4.2890625 5.3203125 -4.2890625 5.3203125 -4.1640625 2.1953125 C-2.1640625 0.1953125 -2.1640625 0.1953125 0 0 Z " fill="#E7EAEE" transform="translate(70.1640625,32.8046875)"/>
<path d="M0 0 C0.9075 0.00257812 1.815 0.00515625 2.75 0.0078125 C4.11125 0.00394531 4.11125 0.00394531 5.5 0 C7.75 0.1328125 7.75 0.1328125 8.75 1.1328125 C9.19926708 5.08636276 9.05871428 6.68903573 6.75 10.0078125 C6.09 10.7090625 5.43 11.4103125 4.75 12.1328125 C4.234375 11.9471875 3.71875 11.7615625 3.1875 11.5703125 C-0.10908739 10.97861733 -2.97245735 11.5655455 -6.25 12.1328125 C1.25 7.1328125 1.25 7.1328125 3.75 7.1328125 C3.75 6.4728125 3.75 5.8128125 3.75 5.1328125 C3.14671875 5.349375 2.5434375 5.5659375 1.921875 5.7890625 C1.12265625 6.0675 0.3234375 6.3459375 -0.5 6.6328125 C-1.68335937 7.05046875 -1.68335937 7.05046875 -2.890625 7.4765625 C-5.25 8.1328125 -5.25 8.1328125 -9.25 8.1328125 C-9.25 7.4728125 -9.25 6.8128125 -9.25 6.1328125 C-7.6 6.1328125 -5.95 6.1328125 -4.25 6.1328125 C-4.105625 5.3284375 -3.96125 4.5240625 -3.8125 3.6953125 C-3.04073359 0.17948775 -3.04073359 0.17948775 0 0 Z " fill="#473726" transform="translate(72.25,54.8671875)"/>
<path d="M0 0 C2.35546875 0.6328125 2.35546875 0.6328125 5 2 C6.36328125 4.6796875 6.36328125 4.6796875 7.3125 7.875 C7.63863281 8.92429687 7.96476562 9.97359375 8.30078125 11.0546875 C9 14 9 14 9 18 C10.32 18.33 11.64 18.66 13 19 C8.70917759 21.97973778 8.70917759 21.97973778 5.8125 22.0625 C2.96570588 20.39368966 2.85449481 18.11021629 2 15 C1.74694584 12.75642699 1.55957526 10.50449637 1.4375 8.25 C1.3199501 3.96720156 1.3199501 3.96720156 0 0 Z " fill="#303542" transform="translate(35,33)"/>
<path d="M0 0 C2.1640625 0.2421875 2.1640625 0.2421875 4.625 0.875 C5.44226563 1.07867187 6.25953125 1.28234375 7.1015625 1.4921875 C8.04128906 1.74355469 8.04128906 1.74355469 9 2 C8.8125 4.375 8.8125 4.375 8 7 C5.4375 8.3125 5.4375 8.3125 3 9 C3.99 9.66 4.98 10.32 6 11 C3.25913944 11.22223194 1.56036279 11.34781139 -0.8125 9.875 C-2.52849028 7.16554166 -2.333728 5.13704316 -2 2 C-1.34 1.34 -0.68 0.68 0 0 Z " fill="#E7EAEC" transform="translate(25,41)"/>
<path d="M0 0 C1.32 0 2.64 0 4 0 C4.50512244 1.60256108 5.00391627 3.20711792 5.5 4.8125 C5.7784375 5.70582031 6.056875 6.59914063 6.34375 7.51953125 C7 10 7 10 7 13 C7.66 13 8.32 13 9 13 C9.33 12.01 9.66 11.02 10 10 C10.125 15.75 10.125 15.75 9 18 C7.68 18 6.36 18 5 18 C4.16320723 15.37605694 3.33043058 12.75095616 2.5 10.125 C2.26152344 9.37863281 2.02304687 8.63226563 1.77734375 7.86328125 C0 2.2265625 0 2.2265625 0 0 Z " fill="#EAEEF1" transform="translate(39,33)"/>
<path d="M0 0 C1.96875 0.65625 1.96875 0.65625 3.9375 1.3125 C4.75734375 1.58449219 5.5771875 1.85648438 6.421875 2.13671875 C8.08131678 2.69238031 9.7378631 3.2568053 11.390625 3.83203125 C15.58631912 5.28054469 19.57405186 6.43257075 24 7 C24 7.33 24 7.66 24 8 C22.35 8.33 20.7 8.66 19 9 C19.33 9.66 19.66 10.32 20 11 C12.17584899 9.25205137 6.18069156 6.12865895 0 1 C0 0.67 0 0.34 0 0 Z " fill="#DA9439" transform="translate(20,57)"/>
<path d="M0 0 C0.99 0 1.98 0 3 0 C2.54678672 2.06363112 2.08720894 4.12586507 1.625 6.1875 C1.36976562 7.33605469 1.11453125 8.48460937 0.8515625 9.66796875 C0.10527548 12.58807348 -0.80431788 15.23953389 -2 18 C-3.32 18 -4.64 18 -6 18 C-6 17.01 -6 16.02 -6 15 C-5.01 15 -4.02 15 -3 15 C-3.061875 14.01 -3.12375 13.02 -3.1875 12 C-3.21491645 7.53111789 -1.7208227 4.08695392 0 0 Z " fill="#E2E5E8" transform="translate(61,33)"/>
<path d="M0 0 C1.5994614 3.19892281 2.42595236 5.35462576 3.125 8.75 C3.29257812 9.54921875 3.46015625 10.3484375 3.6328125 11.171875 C3.81457031 12.07679687 3.81457031 12.07679687 4 13 C1.69 13 -0.62 13 -3 13 C-2.01 8.71 -1.02 4.42 0 0 Z " fill="#393E47" transform="translate(51,38)"/>
<path d="M0 0 C1.62418745 -0.08090971 3.24951745 -0.13914995 4.875 -0.1875 C5.77992187 -0.22230469 6.68484375 -0.25710937 7.6171875 -0.29296875 C8.79667969 -0.14794922 8.79667969 -0.14794922 10 0 C10.66 0.99 11.32 1.98 12 3 C11.01 3.99 10.02 4.98 9 6 C8.67 5.34 8.34 4.68 8 4 C5.03 4 2.06 4 -1 4 C-0.67 2.68 -0.34 1.36 0 0 Z " fill="#E2E5E8" transform="translate(25,33)"/>
<path d="M0 0 C1.485 0.2475 1.485 0.2475 3 0.5 C7.34936806 1.04464359 11.68487504 1.11289597 16.0625 1.125 C16.73474609 1.12951172 17.40699219 1.13402344 18.09960938 1.13867188 C22.50829875 1.12574317 26.66371665 0.71049636 31 0 C26.11658112 3.25561259 22.56535515 3.39557917 16.8125 3.75 C15.97396484 3.81832031 15.13542969 3.88664062 14.27148438 3.95703125 C8.62705748 4.30072001 5.01738914 3.63429904 0 1 C0 0.67 0 0.34 0 0 Z " fill="#583813" transform="translate(35,67)"/>
<path d="M0 0 C0 0.66 0 1.32 0 2 C-1.62249941 2.83819158 -3.24808497 3.6704116 -4.875 4.5 C-5.77992187 4.9640625 -6.68484375 5.428125 -7.6171875 5.90625 C-10 7 -10 7 -12 7 C-12 6.34 -12 5.68 -12 5 C-13.32 4.67 -14.64 4.34 -16 4 C-13.70922959 3.33011414 -11.41748541 2.66396838 -9.125 2 C-8.47402344 1.80921875 -7.82304688 1.6184375 -7.15234375 1.421875 C-2.2265625 0 -2.2265625 0 0 0 Z " fill="#DC983B" transform="translate(76,60)"/>
<path d="M0 0 C1.21816406 0.03480469 1.21816406 0.03480469 2.4609375 0.0703125 C3.68683594 0.09738281 3.68683594 0.09738281 4.9375 0.125 C5.87722656 0.15980469 5.87722656 0.15980469 6.8359375 0.1953125 C7.20223906 4.13305427 7.13826953 5.76071021 4.8359375 9.0703125 C4.1759375 9.7715625 3.5159375 10.4728125 2.8359375 11.1953125 C3.1659375 8.2253125 3.4959375 5.2553125 3.8359375 2.1953125 C1.1959375 2.1953125 -1.4440625 2.1953125 -4.1640625 2.1953125 C-2.1640625 0.1953125 -2.1640625 0.1953125 0 0 Z " fill="#CB9242" transform="translate(74.1640625,55.8046875)"/>
<path d="M0 0 C-0.33 1.65 -0.66 3.3 -1 5 C-2.98 5.33 -4.96 5.66 -7 6 C-7.33 4.35 -7.66 2.7 -8 1 C-5.29120665 -0.35439668 -2.99066732 -0.06501451 0 0 Z " fill="#383E47" transform="translate(34,43)"/>
<path d="M0 0 C2.64 0.33 5.28 0.66 8 1 C7.34 2.32 6.68 3.64 6 5 C6.99 5.66 7.98 6.32 9 7 C8.01 7.495 8.01 7.495 7 8 C5.0546875 7.22265625 5.0546875 7.22265625 2.875 6.0625 C2.15054688 5.68222656 1.42609375 5.30195312 0.6796875 4.91015625 C0.12539062 4.60980469 -0.42890625 4.30945312 -1 4 C-0.67 2.68 -0.34 1.36 0 0 Z " fill="#42464F" transform="translate(70,35)"/>
<path d="M0 0 C1.2065625 0.0309375 1.2065625 0.0309375 2.4375 0.0625 C2.1075 2.3725 1.7775 4.6825 1.4375 7.0625 C-5.52678571 9.33928571 -5.52678571 9.33928571 -9.5625 8.0625 C-8.27336513 7.39095067 -6.98109796 6.72541141 -5.6875 6.0625 C-4.96820313 5.69125 -4.24890625 5.32 -3.5078125 4.9375 C-1.5625 4.0625 -1.5625 4.0625 0.4375 4.0625 C0.4375 3.4025 0.4375 2.7425 0.4375 2.0625 C-0.8825 1.7325 -2.2025 1.4025 -3.5625 1.0625 C-2.5625 0.0625 -2.5625 0.0625 0 0 Z " fill="#3F2F1D" transform="translate(75.5625,57.9375)"/>
<path d="M0 0 C1.45606519 4.52092968 0.27032841 7.51648796 -1 12 C-1.66 12 -2.32 12 -3 12 C-3.66 9.03 -4.32 6.06 -5 3 C-4.01 3 -3.02 3 -2 3 C-1.34 2.01 -0.68 1.02 0 0 Z " fill="#31353D" transform="translate(59,33)"/>
<path d="M0 0 C0.73605469 0.48210938 1.47210937 0.96421875 2.23046875 1.4609375 C3.20628906 2.09257813 4.18210937 2.72421875 5.1875 3.375 C6.63189453 4.31472656 6.63189453 4.31472656 8.10546875 5.2734375 C10.69803936 6.81988312 13.16853116 7.97508075 16 9 C16 9.33 16 9.66 16 10 C12.8125 10.3125 12.8125 10.3125 9 10 C6.3125 7.6875 6.3125 7.6875 4 5 C3.236875 4.443125 2.47375 3.88625 1.6875 3.3125 C1.130625 2.879375 0.57375 2.44625 0 2 C0 1.34 0 0.68 0 0 Z " fill="#402F1E" transform="translate(19,57)"/>
<path d="M0 0 C1.46067199 0.45082469 2.91848032 0.91093537 4.375 1.375 C5.18710937 1.63023438 5.99921875 1.88546875 6.8359375 2.1484375 C9 3 9 3 11 5 C11.33 5.99 11.66 6.98 12 8 C7.44328408 6.48109469 3.68276708 4.04597738 0 1 C0 0.67 0 0.34 0 0 Z " fill="#C48E4A" transform="translate(20,57)"/>
<path d="M0 0 C8.57142857 -0.28571429 8.57142857 -0.28571429 12 2 C12 2.33 12 2.66 12 3 C10.56344146 3.08131463 9.1255517 3.13933559 7.6875 3.1875 C6.48673828 3.23970703 6.48673828 3.23970703 5.26171875 3.29296875 C2.52148416 2.93801608 1.70828921 2.10633718 0 0 Z " fill="#F19A28" transform="translate(37,65)"/>
<path d="M0 0 C5.42096702 1.35524176 10.0778687 3.36634013 15 6 C13 7 13 7 10.21484375 6.07421875 C9.13332031 5.61660156 8.05179688 5.15898438 6.9375 4.6875 C5.85339844 4.23761719 4.76929688 3.78773437 3.65234375 3.32421875 C1 2 1 2 0 0 Z " fill="#49371C" transform="translate(21,56)"/>
<path d="M0 0 C0.33 1.32 0.66 2.64 1 4 C1.66 4 2.32 4 3 4 C3 4.99 3 5.98 3 7 C2.01 7 1.02 7 0 7 C-0.33 7.66 -0.66 8.32 -1 9 C-1.625 5.625 -1.625 5.625 -2 2 C-1.34 1.34 -0.68 0.68 0 0 Z " fill="#CDD1D6" transform="translate(55,41)"/>
<path d="M0 0 C2.475 0.99 2.475 0.99 5 2 C4.34 6.29 3.68 10.58 3 15 C2.67 15 2.34 15 2 15 C1.90912109 13.62714844 1.90912109 13.62714844 1.81640625 12.2265625 C1.69072266 10.44378906 1.69072266 10.44378906 1.5625 8.625 C1.48128906 7.44164062 1.40007813 6.25828125 1.31640625 5.0390625 C1.18915064 2.08481099 1.18915064 2.08481099 0 0 Z " fill="#51555E" transform="translate(35,33)"/>
<path d="M0 0 C0.99 0.33 1.98 0.66 3 1 C2.75 3.375 2.75 3.375 2 6 C-0.0625 7.3125 -0.0625 7.3125 -2 8 C-1.125 2.25 -1.125 2.25 0 0 Z " fill="#41474E" transform="translate(64,33)"/>
<path d="M0 0 C0 0.66 0 1.32 0 2 C-1.98 2.99 -3.96 3.98 -6 5 C-6 4.34 -6 3.68 -6 3 C-6.99 2.67 -7.98 2.34 -9 2 C-2.25 0 -2.25 0 0 0 Z " fill="#C08B40" transform="translate(76,60)"/>
<path d="M0 0 C0.93423645 3.01031744 1.04449911 3.86650268 0 7 C-1.32 7 -2.64 7 -4 7 C-4 6.01 -4 5.02 -4 4 C-3.01 4 -2.02 4 -1 4 C-0.67 2.68 -0.34 1.36 0 0 Z " fill="#F6F8FA" transform="translate(59,44)"/>
<path d="M0 0 C3.63 0.66 7.26 1.32 11 2 C11 2.66 11 3.32 11 4 C7.1936543 3.32829194 3.64793184 2.27253436 0 1 C0 0.67 0 0.34 0 0 Z " fill="#44341F" transform="translate(35,67)"/>
<path d="M0 0 C1.65 0.33 3.3 0.66 5 1 C4.67 2.32 4.34 3.64 4 5 C3.01 4.01 2.02 3.02 1 2 C1 2.66 1 3.32 1 4 C-0.65 4 -2.3 4 -4 4 C-2.68 3.67 -1.36 3.34 0 3 C0 2.01 0 1.02 0 0 Z " fill="#363D47" transform="translate(59,48)"/>
</svg>
