<?xml version="1.0" encoding="UTF-8"?>
<svg version="1.1" xmlns="http://www.w3.org/2000/svg" width="100" height="100">
<path d="M0 0 C33 0 66 0 100 0 C100 33 100 66 100 100 C67 100 34 100 0 100 C0 67 0 34 0 0 Z " fill="#0F284C" transform="translate(0,0)"/>
<path d="M0 0 C0.99 0 1.98 0 3 0 C3 8.25 3 16.5 3 25 C2.34 25 1.68 25 1 25 C1.33 26.65 1.66 28.3 2 30 C3.216875 29.773125 4.43375 29.54625 5.6875 29.3125 C8.67343974 28.9577873 10.01180146 29.00401752 12.9375 30 C15 32 15 32 16.125 35.375 C16 39 16 39 14 41.9375 C10.26790056 44.50331836 8.44071826 44.80740332 4 44 C1.64198773 41.70571779 0.30356494 39.84064138 -0.8125 36.75 C-2.0012578 34.56089266 -2.0012578 34.56089266 -5.625 34.25 C-6.73875 34.1675 -7.8525 34.085 -9 34 C-9.495 36.475 -9.495 36.475 -10 39 C-8.35 39.33 -6.7 39.66 -5 40 C-4.67 41.32 -4.34 42.64 -4 44 C-10.27586207 44.48275862 -10.27586207 44.48275862 -13.4375 42.375 C-15.49791771 39.24316508 -15.6767545 37.68455227 -15 34 C-12.27332387 30.28180527 -10.72732031 29.15500269 -6.1875 28.1875 C-4.6096875 28.0946875 -4.6096875 28.0946875 -3 28 C-3 26.02 -3 24.04 -3 22 C-2.34 22 -1.68 22 -1 22 C-1.00523682 21.36908447 -1.01047363 20.73816895 -1.01586914 20.08813477 C-1.03657826 17.24626653 -1.04964066 14.40441412 -1.0625 11.5625 C-1.07087891 10.56927734 -1.07925781 9.57605469 -1.08789062 8.55273438 C-1.09111328 7.60849609 -1.09433594 6.66425781 -1.09765625 5.69140625 C-1.10289307 4.81685791 -1.10812988 3.94230957 -1.11352539 3.04125977 C-1 1 -1 1 0 0 Z " fill="#7C8D9F" transform="translate(69,28)"/>
<path d="M0 0 C0.66 0.33 1.32 0.66 2 1 C2 3.31 2 5.62 2 8 C1.34 8 0.68 8 0 8 C0.33 8.99 0.66 9.98 1 11 C1.99 11.33 2.98 11.66 4 12 C4 9.03 4 6.06 4 3 C5.65 3 7.3 3 9 3 C9 7.95 9 12.9 9 18 C6.03 18 3.06 18 0 18 C0 16.68 0 15.36 0 14 C-3.47147842 13.25042843 -3.47147842 13.25042843 -7 13 C-5.02 13.66 -3.04 14.32 -1 15 C-1 15.99 -1 16.98 -1 18 C-4.25 18.3125 -4.25 18.3125 -8 18 C-10.5 15.875 -10.5 15.875 -12 13 C-12 9.36924173 -11.41176127 7.57951586 -9.3125 4.625 C-6.37550387 2.56116488 -4.51387796 2.68055655 -1 3 C-0.67 2.01 -0.34 1.02 0 0 Z " fill="#293B5C" transform="translate(27,54)"/>
<path d="M0 0 C1.32 0 2.64 0 4 0 C4.33 1.98 4.66 3.96 5 6 C5.33 4.35 5.66 2.7 6 1 C6.99 1.33 7.98 1.66 9 2 C9 2.66 9 3.32 9 4 C10.65 4.33 12.3 4.66 14 5 C14 6.98 14 8.96 14 11 C10.5275795 11.86810513 8.41868609 11.88224157 5 11 C3.66018514 11.3062434 2.32488113 11.63451555 1 12 C0 11 0 11 -0.09765625 8.49609375 C-0.08605469 7.48675781 -0.07445312 6.47742187 -0.0625 5.4375 C-0.05347656 4.42558594 -0.04445312 3.41367187 -0.03515625 2.37109375 C-0.02355469 1.58863281 -0.01195312 0.80617187 0 0 Z " fill="#142B4E" transform="translate(38,35)"/>
<path d="M0 0 C1.32 0.33 2.64 0.66 4 1 C4 2.32 4 3.64 4 5 C5.65 4.34 7.3 3.68 9 3 C9.33 3.66 9.66 4.32 10 5 C10.99 5 11.98 5 13 5 C13 7.31 13 9.62 13 12 C11.0625 11.625 11.0625 11.625 9 11 C8.67 10.34 8.34 9.68 8 9 C7.01 9.495 7.01 9.495 6 10 C5.34 9.67 4.68 9.34 4 9 C3.67 9.99 3.34 10.98 3 12 C2.01 12 1.02 12 0 12 C0 8.04 0 4.08 0 0 Z " fill="#243759" transform="translate(79,35)"/>
<path d="M0 0 C0 1.32 0 2.64 0 4 C-1.98 4.66 -3.96 5.32 -6 6 C-5.67 7.65 -5.34 9.3 -5 11 C-3.35 11 -1.7 11 0 11 C0 12.32 0 13.64 0 15 C-6.27586207 15.48275862 -6.27586207 15.48275862 -9.4375 13.375 C-11.49791771 10.24316508 -11.6767545 8.68455227 -11 5 C-7.70148959 0.53730944 -5.51785135 -0.64161062 0 0 Z " fill="#E0E8EE" transform="translate(65,57)"/>
<path d="M0 0 C0 0.99 0 1.98 0 3 C-1.98 3.99 -1.98 3.99 -4 5 C-3.175 5.391875 -2.35 5.78375 -1.5 6.1875 C1 8 1 8 1.4375 10.5625 C1 13 1 13 -1 15 C-3.68839385 15.26991906 -6.29141936 15.08737357 -9 15 C-9 14.01 -9 13.02 -9 12 C-7.02 11.67 -5.04 11.34 -3 11 C-4.2065625 10.13375 -4.2065625 10.13375 -5.4375 9.25 C-8 7 -8 7 -9 4.9375 C-9 3 -9 3 -7.9375 1.25 C-5.24828988 -0.48497427 -3.13104437 -0.20873629 0 0 Z " fill="#E4EDF3" transform="translate(49,57)"/>
<path d="M0 0 C0 1.32 0 2.64 0 4 C-1.98 4.66 -3.96 5.32 -6 6 C-5.67 7.65 -5.34 9.3 -5 11 C-3.35 11.33 -1.7 11.66 0 12 C0 12.99 0 13.98 0 15 C-3.25 15.3125 -3.25 15.3125 -7 15 C-9.5 12.875 -9.5 12.875 -11 10 C-11 6.36924173 -10.41176127 4.57951586 -8.3125 1.625 C-5.37550387 -0.43883512 -3.51387796 -0.31944345 0 0 Z " fill="#E8F1F5" transform="translate(26,57)"/>
<path d="M0 0 C1.32 0.33 2.64 0.66 4 1 C4 7.93 4 14.86 4 22 C2.68 22 1.36 22 0 22 C0 14.74 0 7.48 0 0 Z " fill="#DCE3E8" transform="translate(28,28)"/>
<path d="M0 0 C0.99 0 1.98 0 3 0 C3 7.59 3 15.18 3 23 C2.01 23 1.02 23 0 23 C0 15.41 0 7.82 0 0 Z " fill="#F3F8FB" transform="translate(69,28)"/>
<path d="M0 0 C2.625 0.375 2.625 0.375 5 1 C5.625 3.375 5.625 3.375 6 6 C5.34 6.66 4.68 7.32 4 8 C1.375 7.625 1.375 7.625 -1 7 C-1.625 4.625 -1.625 4.625 -2 2 C-1.34 1.34 -0.68 0.68 0 0 Z " fill="#273856" transform="translate(75,61)"/>
<path d="M0 0 C1.32 0 2.64 0 4 0 C4 3.63 4 7.26 4 11 C2.68 11 1.36 11 0 11 C0 7.37 0 3.74 0 0 Z " fill="#DAE3EB" transform="translate(38,35)"/>
<path d="M0 0 C0.99 0 1.98 0 3 0 C3 3.63 3 7.26 3 11 C1.68 11 0.36 11 -1 11 C-1.02688151 9.35425434 -1.04634123 7.70838587 -1.0625 6.0625 C-1.07410156 5.14597656 -1.08570313 4.22945312 -1.09765625 3.28515625 C-1 1 -1 1 0 0 Z " fill="#CDD7E0" transform="translate(59,35)"/>
<path d="M0 0 C0.33 0.99 0.66 1.98 1 3 C1.66 3 2.32 3 3 3 C4.61949011 5.57213134 5.04408751 6.67669159 4.625 9.75 C4.41875 10.4925 4.2125 11.235 4 12 C3.1646875 10.8553125 3.1646875 10.8553125 2.3125 9.6875 C0.03320631 7.03859112 -1.93599872 5.61711178 -5 4 C-4.67 3.34 -4.34 2.68 -4 2 C-2.68 2 -1.36 2 0 2 C0 1.34 0 0.68 0 0 Z " fill="#11284B" transform="translate(49,58)"/>
<path d="M0 0 C0.99 0.33 1.98 0.66 3 1 C3.25 3.8125 3.25 3.8125 3 7 C0.7793949 9.467339 -0.43569203 9.96152446 -3.75 10.1875 C-4.4925 10.125625 -5.235 10.06375 -6 10 C-6.33 9.01 -6.66 8.02 -7 7 C-5.02 6.34 -3.04 5.68 -1 5 C-0.67 3.35 -0.34 1.7 0 0 Z " fill="#F3FAFD" transform="translate(81,62)"/>
<path d="M0 0 C0.99 0 1.98 0 3 0 C3 4.62 3 9.24 3 14 C2.01 14 1.02 14 0 14 C0 9.38 0 4.76 0 0 Z " fill="#F8FEFE" transform="translate(32,58)"/>
<path d="M0 0 C1.36125 0.12375 1.36125 0.12375 2.75 0.25 C2.75 1.57 2.75 2.89 2.75 4.25 C-0.22 4.91 -3.19 5.57 -6.25 6.25 C-6.58 5.59 -6.91 4.93 -7.25 4.25 C-4.83923194 1.28290085 -3.90322061 0.30024774 0 0 Z " fill="#E0EBEF" transform="translate(23.25,56.75)"/>
<path d="M0 0 C3.77258731 0.29019902 6.32665983 0.51657629 9.4375 2.75 C11.28286337 5.40732325 11.35205968 6.8314629 11 10 C10.67 8.68 10.34 7.36 10 6 C8.8553125 5.814375 8.8553125 5.814375 7.6875 5.625 C5 5 5 5 2 3 C2.33 2.34 2.66 1.68 3 1 C2.01 0.67 1.02 0.34 0 0 Z " fill="#D2DCE5" transform="translate(74,57)"/>
<path d="M0 0 C0.99 0 1.98 0 3 0 C3 3.96 3 7.92 3 12 C2.01 12 1.02 12 0 12 C0 8.04 0 4.08 0 0 Z " fill="#F0F9FB" transform="translate(79,35)"/>
<path d="M0 0 C0.99 0 1.98 0 3 0 C3 3.96 3 7.92 3 12 C2.01 12 1.02 12 0 12 C0 8.04 0 4.08 0 0 Z " fill="#F1F9FC" transform="translate(18,35)"/>
<path d="M0 0 C2.97 0.495 2.97 0.495 6 1 C3.25 5.875 3.25 5.875 1 7 C1 6.01 1 5.02 1 4 C0.01 4.495 0.01 4.495 -1 5 C-0.67 3.35 -0.34 1.7 0 0 Z " fill="#0F2647" transform="translate(60,61)"/>
<path d="M0 0 C0 1.32 0 2.64 0 4 C-3.375 4.1875 -3.375 4.1875 -7 4 C-7.66 3.01 -8.32 2.02 -9 1 C-6.04335481 -0.4783226 -3.25770263 -0.06032783 0 0 Z " fill="#EBF5F8" transform="translate(65,68)"/>
<path d="M0 0 C0.99 0 1.98 0 3 0 C3 1.98 3 3.96 3 6 C1.68 6 0.36 6 -1 6 C-1.042721 4.33388095 -1.04063832 2.66617115 -1 1 C-0.67 0.67 -0.34 0.34 0 0 Z " fill="#DCE5EE" transform="translate(49,40)"/>
<path d="M0 0 C0.66 0.33 1.32 0.66 2 1 C2 3.31 2 5.62 2 8 C0.68 7.67 -0.64 7.34 -2 7 C-1.34 4.69 -0.68 2.38 0 0 Z " fill="#25395B" transform="translate(27,54)"/>
<path d="M0 0 C0.99 0 1.98 0 3 0 C3 2.31 3 4.62 3 7 C2.01 7 1.02 7 0 7 C0 4.69 0 2.38 0 0 Z " fill="#EBF4FA" transform="translate(89,40)"/>
<path d="M0 0 C0.99 0 1.98 0 3 0 C3 2.31 3 4.62 3 7 C2.01 7 1.02 7 0 7 C0 4.69 0 2.38 0 0 Z " fill="#EAF7FA" transform="translate(8,40)"/>
<path d="M0 0 C0.99 0.33 1.98 0.66 3 1 C3 1.66 3 2.32 3 3 C2.01 3 1.02 3 0 3 C0 6.63 0 10.26 0 14 C-0.33 14 -0.66 14 -1 14 C-1.02685938 11.85423363 -1.04633088 9.70837355 -1.0625 7.5625 C-1.07410156 6.36753906 -1.08570312 5.17257813 -1.09765625 3.94140625 C-1 1 -1 1 0 0 Z " fill="#3D4C65" transform="translate(79,32)"/>
<path d="M0 0 C0.66 0 1.32 0 2 0 C2.33 2.31 2.66 4.62 3 7 C2.01 7.33 1.02 7.66 0 8 C0 5.36 0 2.72 0 0 Z " fill="#F3FBFD" transform="translate(59,39)"/>
<path d="M0 0 C0.5775 0.639375 1.155 1.27875 1.75 1.9375 C3.98062401 3.98223868 5.07436391 4.58205199 8 5 C7.67 6.32 7.34 7.64 7 9 C7 8.01 7 7.02 7 6 C6.21625 6.04125 5.4325 6.0825 4.625 6.125 C2 6 2 6 0 4 C0 2.68 0 1.36 0 0 Z " fill="#5B687D" transform="translate(19,63)"/>
<path d="M0 0 C2.31 0 4.62 0 7 0 C6.67 0.99 6.34 1.98 6 3 C3.9375 3.6875 3.9375 3.6875 2 4 C2 3.34 2 2.68 2 2 C1.34 1.34 0.68 0.68 0 0 Z " fill="#1A2F57" transform="translate(22,72)"/>
<path d="M0 0 C1 3 1 3 0 6 C-2.475 5.01 -2.475 5.01 -5 4 C-4.67 3.34 -4.34 2.68 -4 2 C-2.68 2 -1.36 2 0 2 C0 1.34 0 0.68 0 0 Z " fill="#3D4C63" transform="translate(49,58)"/>
</svg>
