<?xml version="1.0" standalone="no"?>
<!DOCTYPE svg PUBLIC "-//W3C//DTD SVG 20010904//EN"
 "http://www.w3.org/TR/2001/REC-SVG-20010904/DTD/svg10.dtd">
<svg version="1.0" xmlns="http://www.w3.org/2000/svg"
 width="100.000000pt" height="100.000000pt" viewBox="0 0 100.000000 100.000000"
 preserveAspectRatio="xMidYMid meet">

<g transform="translate(0.000000,100.000000) scale(0.100000,-0.100000)"
fill="#000000" stroke="none">
<path d="M0 500 l0 -500 500 0 500 0 0 500 0 500 -500 0 -500 0 0 -500z m315
105 c0 -91 -3 -110 -15 -110 -12 0 -16 21 -18 113 -2 104 -1 113 15 110 16 -3
18 -16 18 -113z m405 6 c0 -107 -10 -143 -31 -110 -10 16 -12 202 -2 212 3 4
12 7 20 7 10 0 13 -25 13 -109z m-508 22 c7 -37 -4 -103 -18 -103 -10 0 -14
15 -14 60 0 45 3 60 14 60 8 0 16 -7 18 -17z m203 -43 c0 -44 -3 -55 -17 -58
-16 -3 -18 5 -18 58 0 53 2 61 18 58 14 -3 17 -14 17 -58z m205 -1 c0 -52 -2
-60 -17 -57 -13 2 -19 15 -21 47 -4 52 2 71 23 71 12 0 15 -13 15 -61z m200 1
c0 -47 -3 -60 -15 -60 -12 0 -15 13 -15 60 0 47 3 60 15 60 12 0 15 -13 15
-60z m-710 -25 c0 -24 -5 -35 -15 -35 -10 0 -15 11 -15 35 0 24 5 35 15 35 10
0 15 -11 15 -35z m405 -1 c0 -19 -5 -29 -15 -29 -16 0 -25 28 -16 51 10 25 31
10 31 -22z m405 1 c0 -24 -5 -35 -15 -35 -10 0 -15 11 -15 35 0 24 5 35 15 35
10 0 15 -11 15 -35z m-652 -157 c3 -14 -3 -18 -26 -18 -35 0 -56 -21 -47 -49
6 -21 33 -34 56 -29 8 2 14 -4 14 -12 0 -10 -12 -16 -36 -18 -30 -3 -41 2 -58
24 -11 15 -21 33 -21 41 0 24 29 71 47 76 35 10 68 2 71 -15z m82 -53 c0 -60
-3 -75 -15 -75 -12 0 -15 15 -15 75 0 60 3 75 15 75 12 0 15 -15 15 -75z m140
56 c0 -14 -5 -18 -19 -14 -31 8 -34 -15 -4 -29 31 -15 42 -51 23 -74 -17 -20
-90 -19 -90 1 0 10 10 15 29 15 42 0 48 18 12 31 -38 13 -49 44 -25 70 23 26
74 26 74 0z m160 -1 c0 -14 -7 -20 -23 -20 -27 0 -47 -17 -47 -42 0 -20 35
-42 56 -34 9 3 14 -1 14 -14 0 -32 -63 -27 -89 6 -28 35 -26 69 4 99 31 32 85
35 85 5z m169 3 c32 -27 37 -73 11 -106 -19 -24 -29 -28 -63 -25 -30 2 -45 10
-60 30 -50 67 47 155 112 101z"/>
<path d="M740 375 c-23 -28 9 -72 45 -59 36 14 24 74 -15 74 -10 0 -23 -7 -30
-15z"/>
</g>
</svg>
