<?xml version="1.0" standalone="no"?>
<!DOCTYPE svg PUBLIC "-//W3C//DTD SVG 20010904//EN"
 "http://www.w3.org/TR/2001/REC-SVG-20010904/DTD/svg10.dtd">
<svg version="1.0" xmlns="http://www.w3.org/2000/svg"
 width="100.000000pt" height="100.000000pt" viewBox="0 0 100.000000 100.000000"
 preserveAspectRatio="xMidYMid meet">

<g transform="translate(0.000000,100.000000) scale(0.100000,-0.100000)"
fill="#000000" stroke="none">
<path d="M241 651 c-106 -37 -141 -106 -92 -184 l23 -37 101 0 101 0 -63 38
c-105 63 -117 116 -39 172 47 35 43 36 -31 11z"/>
<path d="M456 484 c-17 -53 -16 -78 3 -58 7 7 41 100 41 111 0 2 -6 3 -13 3
-7 0 -21 -25 -31 -56z"/>
<path d="M520 518 c-48 -52 -3 -122 55 -84 14 9 25 21 25 26 0 15 -11 12 -32
-7 -17 -15 -20 -15 -35 0 -15 15 -15 18 1 41 18 28 35 33 54 14 15 -15 26 -4
19 17 -9 23 -63 19 -87 -7z"/>
<path d="M641 514 c-38 -48 -17 -94 43 -94 27 0 34 5 44 33 16 46 15 74 -4 81
-33 13 -63 5 -83 -20z m73 -2 c9 -14 -6 -52 -19 -52 -7 0 -15 -5 -17 -12 -7
-19 -28 1 -28 26 0 12 5 27 12 34 14 14 44 16 52 4z"/>
<path d="M772 488 c-39 -52 -46 -84 -13 -54 22 20 61 21 61 1 0 -8 5 -15 10
-15 6 0 10 27 10 60 0 77 -15 79 -68 8z m48 2 c0 -11 -7 -20 -15 -20 -13 0
-14 4 -5 20 6 11 13 20 15 20 3 0 5 -9 5 -20z"/>
<path d="M135 370 c-3 -5 -3 -21 1 -35 4 -17 12 -25 28 -24 17 1 18 2 3 6 -14
4 -16 8 -6 19 12 15 6 44 -10 44 -5 0 -12 -4 -16 -10z"/>
<path d="M180 355 c0 -16 4 -25 8 -19 4 7 15 8 27 3 14 -5 15 -8 5 -9 -8 -1
-2 -6 14 -11 33 -9 48 -3 26 11 -13 8 -13 10 2 10 11 0 15 6 11 20 -4 15 -13
20 -37 19 -23 -1 -25 -3 -8 -6 30 -6 28 -23 -3 -23 -13 0 -29 8 -34 18 -9 14
-10 12 -11 -13z"/>
<path d="M294 361 c0 -11 4 -17 8 -15 4 3 7 -5 5 -18 -1 -17 3 -23 18 -23 16
0 21 8 23 39 2 26 0 36 -8 31 -6 -4 -9 -14 -6 -22 3 -8 1 -11 -4 -8 -6 3 -10
13 -10 21 0 8 -6 14 -13 14 -7 0 -13 -9 -13 -19z"/>
<path d="M370 358 c0 -9 5 -20 12 -24 8 -5 6 -10 -8 -15 -13 -5 -7 -8 21 -8
28 0 34 3 21 8 -14 5 -16 10 -8 15 22 14 14 41 -13 41 -17 0 -25 -6 -25 -17z
m37 -4 c-3 -3 -12 -4 -19 -1 -8 3 -5 6 6 6 11 1 17 -2 13 -5z"/>
<path d="M448 356 c-6 -29 8 -56 27 -56 19 0 33 27 27 56 -3 17 -11 24 -27 24
-16 0 -24 -7 -27 -24z"/>
<path d="M527 361 c-3 -14 0 -19 13 -18 11 1 15 7 12 19 -6 24 -18 23 -25 -1z"/>
<path d="M571 358 c-1 -16 4 -28 9 -28 12 0 12 8 0 35 -8 18 -9 17 -9 -7z"/>
<path d="M604 352 c-1 -20 4 -28 16 -28 12 0 17 8 16 28 -1 38 -31 38 -32 0z"/>
<path d="M651 343 c0 -29 2 -33 8 -18 7 18 4 55 -5 55 -2 0 -4 -17 -3 -37z"/>
<path d="M690 370 c13 -8 13 -11 1 -19 -18 -12 -7 -28 24 -33 22 -5 25 -2 25
26 0 29 -3 32 -32 34 -25 2 -29 0 -18 -8z m40 -31 c0 -5 -10 -9 -21 -9 -18 0
-19 2 -9 15 12 15 30 12 30 -6z"/>
<path d="M765 370 c-3 -4 -2 -22 1 -39 5 -24 12 -31 30 -31 21 0 24 5 24 38 0
32 -3 37 -25 38 -14 1 -27 -2 -30 -6z m42 -36 c-3 -3 -12 -4 -19 -1 -8 3 -5 6
6 6 11 1 17 -2 13 -5z"/>
<path d="M847 374 c-12 -12 -8 -35 6 -29 6 4 4 0 -6 -8 -16 -14 -15 -15 18
-19 34 -4 35 -3 34 32 -2 30 -3 31 -6 8 -5 -33 -21 -38 -19 -6 1 21 -15 34
-27 22z"/>
<path d="M530 319 c0 -5 11 -9 25 -9 14 0 25 2 25 4 0 2 -11 6 -25 8 -14 3
-25 1 -25 -3z"/>
</g>
</svg>
