<?xml version="1.0" encoding="UTF-8"?>
<svg version="1.1" xmlns="http://www.w3.org/2000/svg" width="100" height="100">
<path d="M0 0 C33 0 66 0 100 0 C100 33 100 66 100 100 C67 100 34 100 0 100 C0 67 0 34 0 0 Z " fill="#FCFCFC" transform="translate(0,0)"/>
<path d="M0 0 C-0.71027344 0.36351562 -1.42054687 0.72703125 -2.15234375 1.1015625 C-7.87483013 3.99562726 -7.87483013 3.99562726 -11.25 9.125 C-10.99238382 12.08758608 -10.54068759 13.49945912 -9 16 C-5.14135949 19.08350522 -0.66383143 21.39680795 4 23 C4 23.33 4 23.66 4 24 C0.60505888 24.20402829 -2.78830486 24.32784854 -6.1875 24.4375 C-7.62706055 24.52547852 -7.62706055 24.52547852 -9.09570312 24.61523438 C-16.0513799 24.78371098 -16.0513799 24.78371098 -18.76953125 22.53808594 C-21.08313811 19.42628471 -21.95752936 17.24632968 -22.625 13.375 C-21.79773461 8.90776689 -20.6161691 7.74828851 -17 5 C-5.21653778 -1.73884593 -5.21653778 -1.73884593 0 0 Z " fill="#334A92" transform="translate(34,33)"/>
<path d="M0 0 C2.97 0.33 5.94 0.66 9 1 C9 3.31 9 5.62 9 8 C7.02 7.67 5.04 7.34 3 7 C2.67 7.66 2.34 8.32 2 9 C1.01 9 0.02 9 -1 9 C-1.33 8.34 -1.66 7.68 -2 7 C-3.32 7 -4.64 7 -6 7 C-6 7.66 -6 8.32 -6 9 C-13.75493514 9.09928082 -21.31068715 9.06059488 -29 8 C-28.67 5.69 -28.34 3.38 -28 1 C-23.38 1 -18.76 1 -14 1 C-14 1.99 -14 2.98 -14 4 C-13.34 4 -12.68 4 -12 4 C-12 3.01 -12 2.02 -12 1 C-11.34 1 -10.68 1 -10 1 C-9.67 2.32 -9.34 3.64 -9 5 C-9.66 5 -10.32 5 -11 5 C-11 5.66 -11 6.32 -11 7 C-10.01 7 -9.02 7 -8 7 C-8 5.02 -8 3.04 -8 1 C-7.34 1 -6.68 1 -6 1 C-5.67 1.66 -5.34 2.32 -5 3 C-5 2.34 -5 1.68 -5 1 C-3.68 1.33 -2.36 1.66 -1 2 C-1 2.99 -1 3.98 -1 5 C-0.67 3.35 -0.34 1.7 0 0 Z " fill="#BABABA" transform="translate(65,61)"/>
<path d="M0 0 C1.11246094 -0.01675781 2.22492187 -0.03351562 3.37109375 -0.05078125 C6.84742148 0.34493292 8.73409635 1.30882714 11.5625 3.3125 C11.2325 4.6325 10.9025 5.9525 10.5625 7.3125 C7.21149517 8.31699785 4.11605702 8.47798829 0.625 8.5 C-0.39464844 8.51417969 -1.41429687 8.52835938 -2.46484375 8.54296875 C-5.50909667 8.30694914 -7.68487643 7.59502995 -10.4375 6.3125 C-10.4375 4.9925 -10.4375 3.6725 -10.4375 2.3125 C-6.93981017 0.16599597 -4.06398263 0.01409474 0 0 Z " fill="#8CC456" transform="translate(49.4375,31.6875)"/>
<path d="M0 0 C2.97 0.33 5.94 0.66 9 1 C9 1.99 9 2.98 9 4 C9.66 4 10.32 4 11 4 C11 3.01 11 2.02 11 1 C12.98 1 14.96 1 17 1 C17 3.31 17 5.62 17 8 C15.35 8.33 13.7 8.66 12 9 C12 7.68 12 6.36 12 5 C11.01 5.33 10.02 5.66 9 6 C9 6.66 9 7.32 9 8 C6.69 7.67 4.38 7.34 2 7 C2 7.66 2 8.32 2 9 C0.02 9 -1.96 9 -4 9 C-4.33 6.69 -4.66 4.38 -5 2 C-4.01 1.67 -3.02 1.34 -2 1 C-1.34 1.33 -0.68 1.66 0 2 C0 1.34 0 0.68 0 0 Z " fill="#5F5F5F" transform="translate(18,61)"/>
<path d="M0 0 C1 1 1 1 1.1875 3.6875 C0.99285364 7.12625243 0.22094153 9.79502847 -1 13 C-8.75 12.25 -8.75 12.25 -11 10 C-11.46382725 6.44399109 -11.42769679 4.65009912 -9.4375 1.625 C-6.15988698 -0.56007535 -3.85797355 -0.36395977 0 0 Z " fill="#323131" transform="translate(73,46)"/>
<path d="M0 0 C4.29 0 8.58 0 13 0 C14 5 14 5 13 8 C6.07 7.505 6.07 7.505 -1 7 C-0.67 4.69 -0.34 2.38 0 0 Z " fill="#5C5C5C" transform="translate(37,62)"/>
<path d="M0 0 C2.31 0.66 4.62 1.32 7 2 C7 4 7 4 4.875 6.625 C2 9 2 9 -1.3125 9.3125 C-2.6428125 9.1578125 -2.6428125 9.1578125 -4 9 C-4.33 6.69 -4.66 4.38 -5 2 C-4.01 1.67 -3.02 1.34 -2 1 C-1.34 1.33 -0.68 1.66 0 2 C0 1.34 0 0.68 0 0 Z " fill="#C7C7C7" transform="translate(18,61)"/>
<path d="M0 0 C0.33 1.32 0.66 2.64 1 4 C0.34 4 -0.32 4 -1 4 C-1 3.34 -1 2.68 -1 2 C-3.52363988 2.62533375 -3.52363988 2.62533375 -6 4 C-6.89386164 6.54775306 -6.89386164 6.54775306 -7 9 C-4.69 8.34 -2.38 7.68 0 7 C-1.875 10.875 -1.875 10.875 -3 12 C-4.99958364 12.04080783 -7.00045254 12.04254356 -9 12 C-10.42041821 9.15916359 -10.31452272 7.14522722 -10 4 C-7.16463433 -0.14399597 -4.86205069 -0.44200461 0 0 Z " fill="#403F40" transform="translate(60,46)"/>
<path d="M0 0 C1.32 0 2.64 0 4 0 C4 3.63 4 7.26 4 11 C3.34 11 2.68 11 2 11 C2 10.34 2 9.68 2 9 C-0.64 9.66 -3.28 10.32 -6 11 C-4.54780852 6.88545746 -2.71245508 3.4304579 0 0 Z " fill="#2C2B2B" transform="translate(80,46)"/>
<path d="M0 0 C1.50539661 0.94983358 3.00420347 1.91011891 4.5 2.875 C5.3353125 3.40867188 6.170625 3.94234375 7.03125 4.4921875 C7.6809375 4.98976563 8.330625 5.48734375 9 6 C9 6.66 9 7.32 9 8 C4.38 8 -0.24 8 -5 8 C-4.67 6.68 -4.34 5.36 -4 4 C-2.68 3.67 -1.36 3.34 0 3 C0 2.01 0 1.02 0 0 Z " fill="#27418B" transform="translate(23,48)"/>
<path d="M0 0 C0.33 0.99 0.66 1.98 1 3 C1.66 3 2.32 3 3 3 C3 2.01 3 1.02 3 0 C3.66 0 4.32 0 5 0 C5.33 1.32 5.66 2.64 6 4 C5.34 4 4.68 4 4 4 C4 4.66 4 5.32 4 6 C4.99 6 5.98 6 7 6 C7 4.02 7 2.04 7 0 C7.66 0 8.32 0 9 0 C10.125 5.75 10.125 5.75 9 8 C2.25 8.125 2.25 8.125 0 7 C0 4.69 0 2.38 0 0 Z " fill="#7E7E7E" transform="translate(50,62)"/>
<path d="M0 0 C1.32 0 2.64 0 4 0 C4 0.66 4 1.32 4 2 C4.66 2 5.32 2 6 2 C6.33 1.34 6.66 0.68 7 0 C7 2.31 7 4.62 7 7 C6.34 7 5.68 7 5 7 C5 6.34 5 5.68 5 5 C4.01 5.66 3.02 6.32 2 7 C0.68 7 -0.64 7 -2 7 C-2.125 4.625 -2.125 4.625 -2 2 C-1.34 1.34 -0.68 0.68 0 0 Z " fill="#EBEBEB" transform="translate(55,48)"/>
<path d="M0 0 C-0.69867188 0.40992188 -1.39734375 0.81984375 -2.1171875 1.2421875 C-3.02726562 1.78101563 -3.93734375 2.31984375 -4.875 2.875 C-6.23238281 3.67550781 -6.23238281 3.67550781 -7.6171875 4.4921875 C-10.06603282 5.91975352 -10.06603282 5.91975352 -12 8 C-12 7.01 -12 6.02 -12 5 C-13.98 5.66 -15.96 6.32 -18 7 C-18 7.66 -18 8.32 -18 9 C-18.66 9 -19.32 9 -20 9 C-19 6 -19 6 -16.41796875 4.4296875 C-14.81888672 3.66011719 -14.81888672 3.66011719 -13.1875 2.875 C-12.12917969 2.35679688 -11.07085937 1.83859375 -9.98046875 1.3046875 C-3.97393768 -1.32464589 -3.97393768 -1.32464589 0 0 Z " fill="#4B5C95" transform="translate(34,33)"/>
<path d="M0 0 C1.98 0 3.96 0 6 0 C6 2.64 6 5.28 6 8 C4.02 8 2.04 8 0 8 C0 5.36 0 2.72 0 0 Z " fill="#515151" transform="translate(76,62)"/>
<path d="M0 0 C1.65 0 3.3 0 5 0 C5.79953138 3.28696233 6.09658936 4.71023192 5 8 C3.35 8 1.7 8 0 8 C0.2784375 7.13375 0.2784375 7.13375 0.5625 6.25 C1.04023546 3.79307475 0.75729364 2.35602466 0 0 Z " fill="#4A4A4A" transform="translate(45,62)"/>
<path d="M0 0 C1.32 0 2.64 0 4 0 C4 1.98 4 3.96 4 6 C3.01 6 2.02 6 1 6 C1 6.66 1 7.32 1 8 C0.01 7.67 -0.98 7.34 -2 7 C-2.125 4.625 -2.125 4.625 -2 2 C-1.34 1.34 -0.68 0.68 0 0 Z " fill="#E1DFE0" transform="translate(67,48)"/>
<path d="M0 0 C0.99 0 1.98 0 3 0 C2.01 3.96 1.02 7.92 0 12 C-0.99 12 -1.98 12 -3 12 C-2.49202991 7.6822542 -1.80317221 3.96697886 0 0 Z " fill="#4B4B4B" transform="translate(47,46)"/>
<path d="M0 0 C1.98 0 3.96 0 6 0 C6 2.31 6 4.62 6 7 C3.69 6.67 1.38 6.34 -1 6 C-0.67 4.02 -0.34 2.04 0 0 Z " fill="#4C4C4C" transform="translate(84,62)"/>
<path d="M0 0 C1.32 0.33 2.64 0.66 4 1 C4 1.99 4 2.98 4 4 C4.66 2.68 5.32 1.36 6 0 C6.625 1.8125 6.625 1.8125 7 4 C6.01 5.485 6.01 5.485 5 7 C3.35 6.67 1.7 6.34 0 6 C0 4.02 0 2.04 0 0 Z " fill="#4B4B4B" transform="translate(60,62)"/>
<path d="M0 0 C0.33 0.99 0.66 1.98 1 3 C1.66 3 2.32 3 3 3 C3 2.01 3 1.02 3 0 C3.66 0 4.32 0 5 0 C5.33 1.32 5.66 2.64 6 4 C5.01 4.495 5.01 4.495 4 5 C3.01 6.485 3.01 6.485 2 8 C1.34 7.67 0.68 7.34 0 7 C0 4.69 0 2.38 0 0 Z " fill="#989898" transform="translate(50,62)"/>
<path d="M0 0 C1.2065625 0.0309375 1.2065625 0.0309375 2.4375 0.0625 C2.7675 1.0525 3.0975 2.0425 3.4375 3.0625 C2.7775 3.7225 2.1175 4.3825 1.4375 5.0625 C0.7775 5.0625 0.1175 5.0625 -0.5625 5.0625 C-1.2225 5.7225 -1.8825 6.3825 -2.5625 7.0625 C-2.94383299 5.0710944 -3.27575582 3.06970923 -3.5625 1.0625 C-2.5625 0.0625 -2.5625 0.0625 0 0 Z " fill="#444443" transform="translate(16.5625,61.9375)"/>
<path d="M0 0 C5.94 0 11.88 0 18 0 C17.01 1.32 16.02 2.64 15 4 C15 3.34 15 2.68 15 2 C10.38 2 5.76 2 1 2 C0.67 1.34 0.34 0.68 0 0 Z " fill="#ECFCDD" transform="translate(42,39)"/>
<path d="M0 0 C1.98 0 3.96 0 6 0 C6 2.31 6 4.62 6 7 C4.35 6.67 2.7 6.34 1 6 C1.99 5.34 2.98 4.68 4 4 C3.34 3.67 2.68 3.34 2 3 C2 2.34 2 1.68 2 1 C1.34 0.67 0.68 0.34 0 0 Z " fill="#474747" transform="translate(68,62)"/>
<path d="M0 0 C1.98 0 3.96 0 6 0 C6 2.31 6 4.62 6 7 C1.125 3.375 1.125 3.375 0 0 Z " fill="#545454" transform="translate(29,62)"/>
<path d="M0 0 C0.33 0 0.66 0 1 0 C1.74926071 3.66305234 2.2380014 6.42355152 1 10 C-1.64 9.67 -4.28 9.34 -7 9 C-7 8.67 -7 8.34 -7 8 C-4.69 8 -2.38 8 0 8 C0 7.34 0 6.68 0 6 C-0.66 5.67 -1.32 5.34 -2 5 C-1.34 5 -0.68 5 0 5 C0 3.35 0 1.7 0 0 Z " fill="#5C5B5B" transform="translate(71,49)"/>
<path d="M0 0 C0.66 0.33 1.32 0.66 2 1 C2 2.98 2 4.96 2 7 C1.01 7 0.02 7 -1 7 C-1 6.34 -1 5.68 -1 5 C-1.66 4.67 -2.32 4.34 -3 4 C-2.01 2.68 -1.02 1.36 0 0 Z " fill="#797878" transform="translate(80,46)"/>
<path d="M0 0 C1.65 0 3.3 0 5 0 C5.33 1.65 5.66 3.3 6 5 C4.02 4.34 2.04 3.68 0 3 C0 2.01 0 1.02 0 0 Z " fill="#39383A" transform="translate(45,62)"/>
<path d="M0 0 C2 4 2 4 1.125 6.75 C0.75375 7.4925 0.3825 8.235 0 9 C0.66 9.33 1.32 9.66 2 10 C0.68 10 -0.64 10 -2 10 C-1.34 6.7 -0.68 3.4 0 0 Z " fill="#BEBCBD" transform="translate(74,48)"/>
<path d="M0 0 C0.99 0 1.98 0 3 0 C3 0.99 3 1.98 3 3 C3.66 3.33 4.32 3.66 5 4 C4.01 5.485 4.01 5.485 3 7 C2.34 7 1.68 7 1 7 C0.67 4.69 0.34 2.38 0 0 Z " fill="#A09FA0" transform="translate(42,62)"/>
<path d="M0 0 C2 3 2 3 2 6 C0.35 6 -1.3 6 -3 6 C-2.01 4.02 -1.02 2.04 0 0 Z " fill="#9D9D9D" transform="translate(17,64)"/>
</svg>
